<svg width="160" height="26" viewBox="0 0 160 26" fill="none" xmlns="http://www.w3.org/2000/svg">
<path d="M10.1199 25.35C7.97322 25.35 6.18822 24.9533 4.76488 24.16C3.36488 23.3667 2.30322 22.2583 1.57988 20.835C0.85655 19.4117 0.459883 17.755 0.389883 15.865C0.36655 14.9083 0.354883 13.8817 0.354883 12.785C0.354883 11.6883 0.36655 10.6383 0.389883 9.635C0.459883 7.745 0.85655 6.08833 1.57988 4.665C2.30322 3.24167 3.36488 2.13333 4.76488 1.34C6.18822 0.546665 7.97322 0.149999 10.1199 0.149999C11.7299 0.149999 13.1416 0.371665 14.3549 0.814998C15.5682 1.25833 16.5716 1.85333 17.3649 2.6C18.1816 3.34667 18.7999 4.18667 19.2199 5.12C19.6399 6.03 19.8732 6.975 19.9199 7.955C19.9432 8.165 19.8732 8.34 19.7099 8.48C19.5699 8.62 19.3949 8.69 19.1849 8.69H17.2599C17.0499 8.69 16.8632 8.63167 16.6999 8.515C16.5599 8.39833 16.4549 8.18833 16.3849 7.885C15.9882 6.065 15.2416 4.81667 14.1449 4.14C13.0716 3.46333 11.7182 3.125 10.0849 3.125C8.21822 3.125 6.73655 3.66167 5.63988 4.735C4.54322 5.785 3.94822 7.47667 3.85488 9.81C3.78488 11.7233 3.78488 13.6833 3.85488 15.69C3.94822 18.0233 4.54322 19.7267 5.63988 20.8C6.73655 21.85 8.21822 22.375 10.0849 22.375C11.7182 22.375 13.0716 22.0367 14.1449 21.36C15.2416 20.6833 15.9882 19.435 16.3849 17.615C16.4549 17.3117 16.5599 17.1017 16.6999 16.985C16.8632 16.8683 17.0499 16.81 17.2599 16.81H19.1849C19.3949 16.81 19.5699 16.88 19.7099 17.02C19.8732 17.16 19.9432 17.335 19.9199 17.545C19.8732 18.525 19.6399 19.4817 19.2199 20.415C18.7999 21.325 18.1816 22.1533 17.3649 22.9C16.5716 23.6467 15.5682 24.2417 14.3549 24.685C13.1416 25.1283 11.7299 25.35 10.1199 25.35ZM33.3954 25.35C31.4121 25.35 29.7088 25.0117 28.2854 24.335C26.8621 23.635 25.7654 22.5733 24.9954 21.15C24.2254 19.7033 23.7938 17.895 23.7004 15.725C23.6771 14.6983 23.6654 13.7183 23.6654 12.785C23.6654 11.8283 23.6771 10.8367 23.7004 9.81C23.7938 7.66333 24.2371 5.87833 25.0304 4.455C25.8471 3.00833 26.9671 1.935 28.3904 1.235C29.8371 0.511666 31.5054 0.149999 33.3954 0.149999C35.3088 0.149999 36.9771 0.511666 38.4004 1.235C39.8471 1.935 40.9788 3.00833 41.7954 4.455C42.6121 5.87833 43.0554 7.66333 43.1254 9.81C43.1721 10.8367 43.1954 11.8283 43.1954 12.785C43.1954 13.7183 43.1721 14.6983 43.1254 15.725C43.0554 17.895 42.6238 19.7033 41.8304 21.15C41.0604 22.5733 39.9638 23.635 38.5404 24.335C37.1171 25.0117 35.4021 25.35 33.3954 25.35ZM33.3954 22.375C35.1921 22.375 36.6504 21.8383 37.7704 20.765C38.9138 19.6917 39.5321 17.9533 39.6254 15.55C39.6721 14.5 39.6954 13.5667 39.6954 12.75C39.6954 11.91 39.6721 10.9767 39.6254 9.95C39.5788 8.34 39.2754 7.03333 38.7154 6.03C38.1788 5.02667 37.4554 4.29167 36.5454 3.825C35.6354 3.35833 34.5854 3.125 33.3954 3.125C32.2521 3.125 31.2254 3.35833 30.3154 3.825C29.4054 4.29167 28.6704 5.02667 28.1104 6.03C27.5738 7.03333 27.2704 8.34 27.2004 9.95C27.1771 10.9767 27.1654 11.91 27.1654 12.75C27.1654 13.5667 27.1771 14.5 27.2004 15.55C27.2938 17.9533 27.9121 19.6917 29.0554 20.765C30.1988 21.8383 31.6454 22.375 33.3954 22.375ZM49.102 25C48.8686 25 48.6703 24.93 48.507 24.79C48.367 24.6267 48.297 24.4283 48.297 24.195V1.34C48.297 1.08333 48.367 0.884999 48.507 0.744999C48.6703 0.581665 48.8686 0.499998 49.102 0.499998H50.852C51.132 0.499998 51.342 0.569999 51.482 0.71C51.622 0.849999 51.7036 0.966666 51.727 1.06L59.147 15.2L66.602 1.06C66.6486 0.966666 66.7303 0.849999 66.847 0.71C66.987 0.569999 67.197 0.499998 67.477 0.499998H69.192C69.4486 0.499998 69.647 0.581665 69.787 0.744999C69.9503 0.884999 70.032 1.08333 70.032 1.34V24.195C70.032 24.4283 69.9503 24.6267 69.787 24.79C69.647 24.93 69.4486 25 69.192 25H67.477C67.2436 25 67.0453 24.93 66.882 24.79C66.742 24.6267 66.672 24.4283 66.672 24.195V6.975L60.827 18.385C60.7336 18.6183 60.5936 18.805 60.407 18.945C60.2203 19.0617 59.987 19.12 59.707 19.12H58.622C58.3186 19.12 58.0736 19.0617 57.887 18.945C57.7236 18.805 57.5836 18.6183 57.467 18.385L51.622 6.975V24.195C51.622 24.4283 51.5403 24.6267 51.377 24.79C51.237 24.93 51.0503 25 50.817 25H49.102ZM76.89 25C76.6334 25 76.435 24.93 76.295 24.79C76.155 24.6267 76.085 24.4283 76.085 24.195V1.34C76.085 1.08333 76.155 0.884999 76.295 0.744999C76.435 0.581665 76.6334 0.499998 76.89 0.499998H85.78C87.5067 0.499998 89 0.779998 90.26 1.34C91.5434 1.9 92.535 2.74 93.235 3.86C93.935 4.95667 94.285 6.33333 94.285 7.99C94.285 9.64667 93.935 11.0233 93.235 12.12C92.535 13.2167 91.5434 14.045 90.26 14.605C89 15.165 87.5067 15.445 85.78 15.445H79.585V24.195C79.585 24.4283 79.5034 24.6267 79.34 24.79C79.2 24.93 79.0017 25 78.745 25H76.89ZM79.55 12.505H85.605C87.3317 12.505 88.6267 12.12 89.49 11.35C90.3534 10.58 90.785 9.46 90.785 7.99C90.785 6.54333 90.365 5.42333 89.525 4.63C88.685 3.83667 87.3784 3.44 85.605 3.44H79.55V12.505ZM95.4947 25C95.3081 25 95.1447 24.93 95.0047 24.79C94.8647 24.65 94.7947 24.4867 94.7947 24.3C94.7947 24.1833 94.8064 24.055 94.8297 23.915L103.51 1.27C103.603 1.03667 103.731 0.849999 103.895 0.71C104.058 0.569999 104.303 0.499998 104.63 0.499998H107.01C107.313 0.499998 107.546 0.569999 107.71 0.71C107.896 0.849999 108.036 1.03667 108.13 1.27L116.775 23.915C116.821 24.055 116.845 24.1833 116.845 24.3C116.845 24.4867 116.775 24.65 116.635 24.79C116.495 24.93 116.331 25 116.145 25H114.36C114.08 25 113.87 24.93 113.73 24.79C113.613 24.65 113.531 24.5217 113.485 24.405L111.56 19.435H100.08L98.1547 24.405C98.1314 24.5217 98.0497 24.65 97.9097 24.79C97.7697 24.93 97.5597 25 97.2797 25H95.4947ZM101.095 16.425H110.545L105.82 4L101.095 16.425ZM128.12 25.35C126.09 25.35 124.387 25.0467 123.01 24.44C121.634 23.81 120.572 23.005 119.825 22.025C119.102 21.0217 118.717 19.96 118.67 18.84C118.67 18.6533 118.74 18.49 118.88 18.35C119.044 18.1867 119.23 18.105 119.44 18.105H121.225C121.505 18.105 121.715 18.175 121.855 18.315C121.995 18.455 122.089 18.6183 122.135 18.805C122.252 19.365 122.532 19.925 122.975 20.485C123.442 21.0217 124.084 21.4767 124.9 21.85C125.74 22.2 126.814 22.375 128.12 22.375C130.127 22.375 131.597 22.025 132.53 21.325C133.487 20.6017 133.965 19.645 133.965 18.455C133.965 17.6383 133.709 16.985 133.195 16.495C132.705 15.9817 131.947 15.5267 130.92 15.13C129.894 14.7333 128.564 14.3017 126.93 13.835C125.227 13.345 123.815 12.8083 122.695 12.225C121.575 11.6417 120.735 10.9183 120.175 10.055C119.639 9.19167 119.37 8.095 119.37 6.765C119.37 5.505 119.709 4.385 120.385 3.405C121.062 2.40167 122.03 1.60833 123.29 1.025C124.574 0.441665 126.125 0.149999 127.945 0.149999C129.392 0.149999 130.652 0.348332 131.725 0.744999C132.822 1.11833 133.732 1.63167 134.455 2.285C135.179 2.915 135.727 3.60333 136.1 4.35C136.474 5.07333 136.672 5.785 136.695 6.485C136.695 6.64833 136.637 6.81167 136.52 6.975C136.404 7.115 136.217 7.185 135.96 7.185H134.105C133.942 7.185 133.767 7.13833 133.58 7.045C133.417 6.95167 133.289 6.77667 133.195 6.52C133.055 5.56333 132.519 4.75833 131.585 4.105C130.652 3.45167 129.439 3.125 127.945 3.125C126.429 3.125 125.192 3.41667 124.235 4C123.302 4.58333 122.835 5.49333 122.835 6.73C122.835 7.52333 123.057 8.18833 123.5 8.725C123.944 9.23833 124.644 9.69333 125.6 10.09C126.557 10.4867 127.805 10.9067 129.345 11.35C131.212 11.8633 132.74 12.4117 133.93 12.995C135.12 13.555 135.995 14.2667 136.555 15.13C137.139 15.97 137.43 17.055 137.43 18.385C137.43 19.855 137.045 21.115 136.275 22.165C135.505 23.1917 134.42 23.985 133.02 24.545C131.644 25.0817 130.01 25.35 128.12 25.35ZM149.893 25.35C147.863 25.35 146.159 25.0467 144.783 24.44C143.406 23.81 142.344 23.005 141.598 22.025C140.874 21.0217 140.489 19.96 140.443 18.84C140.443 18.6533 140.513 18.49 140.653 18.35C140.816 18.1867 141.003 18.105 141.213 18.105H142.998C143.278 18.105 143.488 18.175 143.628 18.315C143.768 18.455 143.861 18.6183 143.908 18.805C144.024 19.365 144.304 19.925 144.748 20.485C145.214 21.0217 145.856 21.4767 146.673 21.85C147.513 22.2 148.586 22.375 149.893 22.375C151.899 22.375 153.369 22.025 154.303 21.325C155.259 20.6017 155.738 19.645 155.738 18.455C155.738 17.6383 155.481 16.985 154.968 16.495C154.478 15.9817 153.719 15.5267 152.693 15.13C151.666 14.7333 150.336 14.3017 148.703 13.835C146.999 13.345 145.588 12.8083 144.468 12.225C143.348 11.6417 142.508 10.9183 141.948 10.055C141.411 9.19167 141.143 8.095 141.143 6.765C141.143 5.505 141.481 4.385 142.158 3.405C142.834 2.40167 143.803 1.60833 145.063 1.025C146.346 0.441665 147.898 0.149999 149.718 0.149999C151.164 0.149999 152.424 0.348332 153.498 0.744999C154.594 1.11833 155.504 1.63167 156.228 2.285C156.951 2.915 157.499 3.60333 157.873 4.35C158.246 5.07333 158.444 5.785 158.468 6.485C158.468 6.64833 158.409 6.81167 158.293 6.975C158.176 7.115 157.989 7.185 157.733 7.185H155.878C155.714 7.185 155.539 7.13833 155.353 7.045C155.189 6.95167 155.061 6.77667 154.968 6.52C154.828 5.56333 154.291 4.75833 153.358 4.105C152.424 3.45167 151.211 3.125 149.718 3.125C148.201 3.125 146.964 3.41667 146.008 4C145.074 4.58333 144.608 5.49333 144.608 6.73C144.608 7.52333 144.829 8.18833 145.273 8.725C145.716 9.23833 146.416 9.69333 147.373 10.09C148.329 10.4867 149.578 10.9067 151.118 11.35C152.984 11.8633 154.513 12.4117 155.703 12.995C156.893 13.555 157.768 14.2667 158.328 15.13C158.911 15.97 159.203 17.055 159.203 18.385C159.203 19.855 158.818 21.115 158.048 22.165C157.278 23.1917 156.193 23.985 154.793 24.545C153.416 25.0817 151.783 25.35 149.893 25.35Z" fill="#1D1E1F"/>
</svg>
