<svg width="20" height="12" viewBox="0 0 20 12" fill="none" xmlns="http://www.w3.org/2000/svg">
<path d="M15.8334 10.1667V11.8334H5.83337V10.1667C5.83337 10.1667 5.83337 6.83342 10.8334 6.83342C15.8334 6.83342 15.8334 10.1667 15.8334 10.1667ZM13.3334 2.66675C13.3334 2.1723 13.1868 1.68895 12.912 1.27782C12.6373 0.8667 12.2469 0.546269 11.7901 0.35705C11.3333 0.167831 10.8306 0.118323 10.3456 0.214786C9.8607 0.311249 9.41524 0.549351 9.06561 0.898982C8.71598 1.24861 8.47787 1.69407 8.38141 2.17902C8.28495 2.66398 8.33446 3.16664 8.52367 3.62346C8.71289 4.08027 9.03333 4.47072 9.44445 4.74542C9.85557 5.02013 10.3389 5.16675 10.8334 5.16675C11.4964 5.16675 12.1323 4.90336 12.6011 4.43452C13.07 3.96568 13.3334 3.32979 13.3334 2.66675ZM16 6.88342C16.4556 7.30367 16.8228 7.81045 17.0804 8.37418C17.3379 8.9379 17.4806 9.54729 17.5 10.1667V11.8334H20V10.1667C20 10.1667 20 7.29175 16 6.88342ZM15 0.166749C14.7483 0.1669 14.498 0.20626 14.2584 0.283416C14.7459 0.982557 15.0073 1.8144 15.0073 2.66675C15.0073 3.5191 14.7459 4.35094 14.2584 5.05008C14.498 5.12724 14.7483 5.1666 15 5.16675C15.6631 5.16675 16.299 4.90336 16.7678 4.43452C17.2366 3.96568 17.5 3.32979 17.5 2.66675C17.5 2.00371 17.2366 1.36782 16.7678 0.898982C16.299 0.430141 15.6631 0.166749 15 0.166749ZM6.11671 3.43342L7.08337 4.60842L3.12504 8.56675L0.833374 6.06675L1.80004 5.10008L3.12504 6.41675L6.11671 3.43342Z" fill="#183456"/>
</svg>
