<svg width="18" height="18" viewBox="0 0 18 18" fill="none" xmlns="http://www.w3.org/2000/svg">
<path d="M17.0917 6.25836C18.1334 5.21669 17.6584 4.00002 17.0917 3.40836L14.5917 0.908356C13.5417 -0.133311 12.3334 0.341689 11.7417 0.908356L10.325 2.33336H8.16669C6.58336 2.33336 5.66669 3.16669 5.20002 4.12502L1.50002 7.82502V11.1584L0.908356 11.7417C-0.133311 12.7917 0.341689 14 0.908356 14.5917L3.40836 17.0917C3.85836 17.5417 4.34169 17.7084 4.80002 17.7084C5.39169 17.7084 5.93336 17.4167 6.25836 17.0917L8.50836 14.8334H11.5C12.9167 14.8334 13.6334 13.95 13.8917 13.0834C14.8334 12.8334 15.35 12.1167 15.5584 11.4167C16.85 11.0834 17.3334 9.85836 17.3334 9.00002V6.50002H16.8417L17.0917 6.25836ZM15.6667 9.00002C15.6667 9.37502 15.5084 9.83336 14.8334 9.83336H14V10.6667C14 11.0417 13.8417 11.5 13.1667 11.5H12.3334V12.3334C12.3334 12.7084 12.175 13.1667 11.5 13.1667H7.82502L5.09169 15.9C4.83336 16.1417 4.68336 16 4.59169 15.9084L2.10002 13.425C1.85836 13.1667 2.00002 13.0167 2.09169 12.925L3.16669 11.8417V8.50836L4.83336 6.84169V8.16669C4.83336 9.17502 5.50002 10.6667 7.33336 10.6667C9.16669 10.6667 9.83336 9.17502 9.83336 8.16669H15.6667V9.00002ZM15.9084 5.07502L14.4917 6.50002H8.16669V8.16669C8.16669 8.54169 8.00836 9.00002 7.33336 9.00002C6.65836 9.00002 6.50002 8.54169 6.50002 8.16669V5.66669C6.50002 5.28336 6.64169 4.00002 8.16669 4.00002H11.0084L12.9084 2.10002C13.1667 1.85836 13.3167 2.00002 13.4084 2.09169L15.9 4.57502C16.1417 4.83336 16 4.98336 15.9084 5.07502Z" fill="#2E68FB"/>
</svg>
