<svg width="10" height="16" viewBox="0 0 10 16" fill="none" xmlns="http://www.w3.org/2000/svg">
<path d="M0.833313 10.5H2.49998C2.49998 11.4 3.64165 12.1667 4.99998 12.1667C6.35831 12.1667 7.49998 11.4 7.49998 10.5C7.49998 9.58333 6.63331 9.25 4.79998 8.80833C3.03331 8.36667 0.833313 7.81667 0.833313 5.5C0.833313 4.00833 2.05831 2.74167 3.74998 2.31667V0.5H6.24998V2.31667C7.94165 2.74167 9.16665 4.00833 9.16665 5.5H7.49998C7.49998 4.6 6.35831 3.83333 4.99998 3.83333C3.64165 3.83333 2.49998 4.6 2.49998 5.5C2.49998 6.41667 3.36665 6.75 5.19998 7.19167C6.96665 7.63333 9.16665 8.18333 9.16665 10.5C9.16665 11.9917 7.94165 13.2583 6.24998 13.6833V15.5H3.74998V13.6833C2.05831 13.2583 0.833313 11.9917 0.833313 10.5Z" fill="#2E68FB"/>
</svg>
