<svg width="134" height="32" viewBox="0 0 134 32" fill="none" xmlns="http://www.w3.org/2000/svg">
<path d="M1.16592 25C0.909252 25 0.710918 24.93 0.570918 24.79C0.430918 24.6267 0.360918 24.4283 0.360918 24.195V1.34C0.360918 1.08333 0.430918 0.884999 0.570918 0.744999C0.710918 0.581665 0.909252 0.499998 1.16592 0.499998H9.11092C11.5143 0.499998 13.4509 0.861665 14.9209 1.585C16.3909 2.30833 17.4643 3.38167 18.1409 4.805C18.8176 6.205 19.1676 7.93167 19.1909 9.985C19.2143 11.035 19.2259 11.9567 19.2259 12.75C19.2259 13.5433 19.2143 14.4533 19.1909 15.48C19.1443 17.6267 18.7826 19.4117 18.1059 20.835C17.4526 22.235 16.4026 23.285 14.9559 23.985C13.5326 24.6617 11.6426 25 9.28592 25H1.16592ZM3.79092 22.025H9.11092C10.7209 22.025 12.0043 21.8033 12.9609 21.36C13.9176 20.9167 14.6059 20.205 15.0259 19.225C15.4693 18.245 15.7026 16.95 15.7259 15.34C15.7726 14.64 15.7959 14.0333 15.7959 13.52C15.7959 12.9833 15.7959 12.4583 15.7959 11.945C15.7959 11.4083 15.7726 10.8017 15.7259 10.125C15.6793 7.86167 15.1426 6.19333 14.1159 5.12C13.0893 4.02333 11.3626 3.475 8.93592 3.475H3.79092V22.025ZM24.8418 25C24.6084 25 24.4101 24.93 24.2468 24.79C24.1068 24.6267 24.0368 24.4283 24.0368 24.195V7.64C24.0368 7.40667 24.1068 7.20833 24.2468 7.045C24.4101 6.88167 24.6084 6.8 24.8418 6.8H26.4518C26.6851 6.8 26.8834 6.88167 27.0468 7.045C27.2101 7.20833 27.2918 7.40667 27.2918 7.64V9.18C27.7584 8.38667 28.4001 7.79167 29.2168 7.395C30.0334 6.99833 31.0134 6.8 32.1568 6.8H33.5568C33.7901 6.8 33.9768 6.88167 34.1168 7.045C34.2568 7.185 34.3268 7.37167 34.3268 7.605V9.04C34.3268 9.27333 34.2568 9.46 34.1168 9.6C33.9768 9.74 33.7901 9.81 33.5568 9.81H31.4568C30.1968 9.81 29.2051 10.1833 28.4818 10.93C27.7584 11.6533 27.3968 12.645 27.3968 13.905V24.195C27.3968 24.4283 27.3151 24.6267 27.1518 24.79C26.9884 24.93 26.7901 25 26.5568 25H24.8418ZM44.4459 25.35C42.6725 25.35 41.1909 25.0117 40.0009 24.335C38.8109 23.6583 37.9009 22.725 37.2709 21.535C36.6409 20.3217 36.2909 18.945 36.2209 17.405C36.1975 17.0083 36.1859 16.5067 36.1859 15.9C36.1859 15.27 36.1975 14.7683 36.2209 14.395C36.2909 12.8317 36.6409 11.455 37.2709 10.265C37.9242 9.075 38.8459 8.14167 40.0359 7.465C41.2259 6.78833 42.6959 6.45 44.4459 6.45C46.1959 6.45 47.6659 6.78833 48.8559 7.465C50.0459 8.14167 50.9559 9.075 51.5859 10.265C52.2392 11.455 52.6009 12.8317 52.6709 14.395C52.6942 14.7683 52.7059 15.27 52.7059 15.9C52.7059 16.5067 52.6942 17.0083 52.6709 17.405C52.6009 18.945 52.2509 20.3217 51.6209 21.535C50.9909 22.725 50.0809 23.6583 48.8909 24.335C47.7009 25.0117 46.2192 25.35 44.4459 25.35ZM44.4459 22.655C45.8925 22.655 47.0475 22.2 47.9109 21.29C48.7742 20.3567 49.2409 19.0033 49.3109 17.23C49.3342 16.88 49.3459 16.4367 49.3459 15.9C49.3459 15.3633 49.3342 14.92 49.3109 14.57C49.2409 12.7967 48.7742 11.455 47.9109 10.545C47.0475 9.61167 45.8925 9.145 44.4459 9.145C42.9992 9.145 41.8325 9.61167 40.9459 10.545C40.0825 11.455 39.6275 12.7967 39.5809 14.57C39.5575 14.92 39.5459 15.3633 39.5459 15.9C39.5459 16.4367 39.5575 16.88 39.5809 17.23C39.6275 19.0033 40.0825 20.3567 40.9459 21.29C41.8325 22.2 42.9992 22.655 44.4459 22.655ZM57.9285 31.65C57.6952 31.65 57.4969 31.5683 57.3335 31.405C57.1935 31.265 57.1235 31.0783 57.1235 30.845V7.605C57.1235 7.37167 57.1935 7.185 57.3335 7.045C57.4969 6.88167 57.6952 6.8 57.9285 6.8H59.5385C59.7719 6.8 59.9585 6.88167 60.0985 7.045C60.2619 7.185 60.3435 7.37167 60.3435 7.605V9.145C60.9035 8.375 61.6502 7.73333 62.5835 7.22C63.5169 6.70667 64.6835 6.45 66.0835 6.45C67.3902 6.45 68.4985 6.67167 69.4085 7.115C70.3419 7.55833 71.1002 8.165 71.6835 8.935C72.2902 9.705 72.7452 10.58 73.0485 11.56C73.3519 12.54 73.5152 13.59 73.5385 14.71C73.5619 15.0833 73.5735 15.48 73.5735 15.9C73.5735 16.32 73.5619 16.7167 73.5385 17.09C73.5152 18.1867 73.3519 19.2367 73.0485 20.24C72.7452 21.22 72.2902 22.095 71.6835 22.865C71.1002 23.6117 70.3419 24.2183 69.4085 24.685C68.4985 25.1283 67.3902 25.35 66.0835 25.35C64.7302 25.35 63.5869 25.105 62.6535 24.615C61.7435 24.1017 60.9969 23.4717 60.4135 22.725V30.845C60.4135 31.0783 60.3435 31.265 60.2035 31.405C60.0635 31.5683 59.8652 31.65 59.6085 31.65H57.9285ZM65.3485 22.515C66.5619 22.515 67.5069 22.2583 68.1835 21.745C68.8835 21.2083 69.3852 20.52 69.6885 19.68C69.9919 18.8167 70.1669 17.895 70.2135 16.915C70.2369 16.2383 70.2369 15.5617 70.2135 14.885C70.1669 13.905 69.9919 12.995 69.6885 12.155C69.3852 11.2917 68.8835 10.6033 68.1835 10.09C67.5069 9.55333 66.5619 9.285 65.3485 9.285C64.2052 9.285 63.2719 9.55333 62.5485 10.09C61.8485 10.6267 61.3235 11.315 60.9735 12.155C60.6469 12.9717 60.4602 13.8117 60.4135 14.675C60.3902 15.0483 60.3785 15.4917 60.3785 16.005C60.3785 16.5183 60.3902 16.9733 60.4135 17.37C60.4369 18.1867 60.6235 18.9917 60.9735 19.785C61.3469 20.5783 61.8952 21.2317 62.6185 21.745C63.3419 22.2583 64.2519 22.515 65.3485 22.515ZM86.9331 25.35C85.5331 25.35 84.3665 25.105 83.4331 24.615C82.4998 24.1017 81.7531 23.4717 81.1931 22.725V24.195C81.1931 24.4283 81.1115 24.6267 80.9481 24.79C80.8081 24.93 80.6215 25 80.3881 25H78.7781C78.5448 25 78.3465 24.93 78.1831 24.79C78.0431 24.6267 77.9731 24.4283 77.9731 24.195V0.954999C77.9731 0.721666 78.0431 0.534999 78.1831 0.395C78.3465 0.231666 78.5448 0.149999 78.7781 0.149999H80.4581C80.7148 0.149999 80.9131 0.231666 81.0531 0.395C81.1931 0.534999 81.2631 0.721666 81.2631 0.954999V9.005C81.8465 8.28167 82.5931 7.675 83.5031 7.185C84.4365 6.695 85.5798 6.45 86.9331 6.45C88.2398 6.45 89.3481 6.68333 90.2581 7.15C91.1915 7.59333 91.9498 8.21167 92.5331 9.005C93.1398 9.79833 93.5948 10.6967 93.8981 11.7C94.2015 12.7033 94.3648 13.7533 94.3881 14.85C94.4115 15.2233 94.4231 15.5733 94.4231 15.9C94.4231 16.2267 94.4115 16.5767 94.3881 16.95C94.3648 18.07 94.2015 19.1317 93.8981 20.135C93.5948 21.1383 93.1398 22.0367 92.5331 22.83C91.9498 23.6 91.1915 24.2183 90.2581 24.685C89.3481 25.1283 88.2398 25.35 86.9331 25.35ZM86.1981 22.515C87.4115 22.515 88.3565 22.2583 89.0331 21.745C89.7331 21.2083 90.2348 20.52 90.5381 19.68C90.8415 18.8167 91.0165 17.895 91.0631 16.915C91.0865 16.2383 91.0865 15.5617 91.0631 14.885C91.0165 13.905 90.8415 12.995 90.5381 12.155C90.2348 11.2917 89.7331 10.6033 89.0331 10.09C88.3565 9.55333 87.4115 9.285 86.1981 9.285C85.1015 9.285 84.1915 9.54167 83.4681 10.055C82.7448 10.5683 82.1965 11.2217 81.8231 12.015C81.4731 12.8083 81.2865 13.6133 81.2631 14.43C81.2398 14.8033 81.2281 15.2583 81.2281 15.795C81.2281 16.3083 81.2398 16.7517 81.2631 17.125C81.3098 17.9883 81.4965 18.84 81.8231 19.68C82.1731 20.4967 82.6981 21.1733 83.3981 21.71C84.1215 22.2467 85.0548 22.515 86.1981 22.515ZM106.209 25.35C104.435 25.35 102.954 25.0117 101.764 24.335C100.574 23.6583 99.6636 22.725 99.0336 21.535C98.4036 20.3217 98.0536 18.945 97.9836 17.405C97.9602 17.0083 97.9486 16.5067 97.9486 15.9C97.9486 15.27 97.9602 14.7683 97.9836 14.395C98.0536 12.8317 98.4036 11.455 99.0336 10.265C99.6869 9.075 100.609 8.14167 101.799 7.465C102.989 6.78833 104.459 6.45 106.209 6.45C107.959 6.45 109.429 6.78833 110.619 7.465C111.809 8.14167 112.719 9.075 113.349 10.265C114.002 11.455 114.364 12.8317 114.434 14.395C114.457 14.7683 114.469 15.27 114.469 15.9C114.469 16.5067 114.457 17.0083 114.434 17.405C114.364 18.945 114.014 20.3217 113.384 21.535C112.754 22.725 111.844 23.6583 110.654 24.335C109.464 25.0117 107.982 25.35 106.209 25.35ZM106.209 22.655C107.655 22.655 108.81 22.2 109.674 21.29C110.537 20.3567 111.004 19.0033 111.074 17.23C111.097 16.88 111.109 16.4367 111.109 15.9C111.109 15.3633 111.097 14.92 111.074 14.57C111.004 12.7967 110.537 11.455 109.674 10.545C108.81 9.61167 107.655 9.145 106.209 9.145C104.762 9.145 103.595 9.61167 102.709 10.545C101.845 11.455 101.39 12.7967 101.344 14.57C101.32 14.92 101.309 15.3633 101.309 15.9C101.309 16.4367 101.32 16.88 101.344 17.23C101.39 19.0033 101.845 20.3567 102.709 21.29C103.595 22.2 104.762 22.655 106.209 22.655ZM117.567 25C117.38 25 117.205 24.93 117.042 24.79C116.902 24.65 116.832 24.475 116.832 24.265C116.832 24.195 116.844 24.1133 116.867 24.02C116.914 23.9033 116.984 23.775 117.077 23.635L123.167 15.69L117.462 8.165C117.369 8.025 117.299 7.90833 117.252 7.815C117.229 7.72167 117.217 7.62833 117.217 7.535C117.217 7.325 117.287 7.15 117.427 7.01C117.567 6.87 117.742 6.8 117.952 6.8H119.737C119.994 6.8 120.18 6.87 120.297 7.01C120.437 7.12667 120.554 7.24333 120.647 7.36L125.302 13.415L129.957 7.395C130.05 7.27833 130.155 7.15 130.272 7.01C130.412 6.87 130.61 6.8 130.867 6.8H132.582C132.792 6.8 132.967 6.87 133.107 7.01C133.247 7.15 133.317 7.325 133.317 7.535C133.317 7.62833 133.294 7.72167 133.247 7.815C133.224 7.90833 133.165 8.025 133.072 8.165L127.297 15.76L133.387 23.635C133.48 23.775 133.539 23.8917 133.562 23.985C133.609 24.0783 133.632 24.1717 133.632 24.265C133.632 24.475 133.562 24.65 133.422 24.79C133.282 24.93 133.107 25 132.897 25H131.042C130.809 25 130.622 24.9417 130.482 24.825C130.342 24.7083 130.225 24.5917 130.132 24.475L125.197 18.07L120.262 24.475C120.169 24.5683 120.052 24.685 119.912 24.825C119.795 24.9417 119.609 25 119.352 25H117.567Z" fill="#183456"/>
</svg>
