<svg width="77" height="32" viewBox="0 0 77 32" fill="none" xmlns="http://www.w3.org/2000/svg">
<path d="M1.03506 25C0.778392 25 0.580059 24.93 0.440059 24.79C0.300059 24.6267 0.230059 24.4283 0.230059 24.195V1.34C0.230059 1.08333 0.300059 0.884999 0.440059 0.744999C0.580059 0.581665 0.778392 0.499998 1.03506 0.499998H15.4901C15.7467 0.499998 15.9451 0.581665 16.0851 0.744999C16.2251 0.884999 16.2951 1.08333 16.2951 1.34V2.67C16.2951 2.92667 16.2251 3.125 16.0851 3.265C15.9451 3.405 15.7467 3.475 15.4901 3.475H3.59006V11.14H14.7201C14.9767 11.14 15.1751 11.2217 15.3151 11.385C15.4551 11.525 15.5251 11.7233 15.5251 11.98V13.275C15.5251 13.5083 15.4551 13.7067 15.3151 13.87C15.1751 14.01 14.9767 14.08 14.7201 14.08H3.59006V22.025H15.7701C16.0267 22.025 16.2251 22.095 16.3651 22.235C16.5051 22.375 16.5751 22.5733 16.5751 22.83V24.195C16.5751 24.4283 16.5051 24.6267 16.3651 24.79C16.2251 24.93 16.0267 25 15.7701 25H1.03506Z" fill="#FF4820"/>
<path d="M29.9956 25.35C28.5956 25.35 27.429 25.105 26.4956 24.615C25.5623 24.1017 24.8156 23.4717 24.2556 22.725V24.195C24.2556 24.4283 24.174 24.6267 24.0106 24.79C23.8706 24.93 23.684 25 23.4506 25H21.8406C21.6073 25 21.409 24.93 21.2456 24.79C21.1056 24.6267 21.0356 24.4283 21.0356 24.195V0.954999C21.0356 0.721666 21.1056 0.534999 21.2456 0.395C21.409 0.231666 21.6073 0.149999 21.8406 0.149999H23.5206C23.7773 0.149999 23.9756 0.231666 24.1156 0.395C24.2556 0.534999 24.3256 0.721666 24.3256 0.954999V9.005C24.909 8.28167 25.6556 7.675 26.5656 7.185C27.499 6.695 28.6423 6.45 29.9956 6.45C31.3023 6.45 32.4106 6.68333 33.3206 7.15C34.254 7.59333 35.0123 8.21167 35.5956 9.005C36.2023 9.79833 36.6573 10.6967 36.9606 11.7C37.264 12.7033 37.4273 13.7533 37.4506 14.85C37.474 15.2233 37.4856 15.5733 37.4856 15.9C37.4856 16.2267 37.474 16.5767 37.4506 16.95C37.4273 18.07 37.264 19.1317 36.9606 20.135C36.6573 21.1383 36.2023 22.0367 35.5956 22.83C35.0123 23.6 34.254 24.2183 33.3206 24.685C32.4106 25.1283 31.3023 25.35 29.9956 25.35ZM29.2606 22.515C30.474 22.515 31.419 22.2583 32.0956 21.745C32.7956 21.2083 33.2973 20.52 33.6006 19.68C33.904 18.8167 34.079 17.895 34.1256 16.915C34.149 16.2383 34.149 15.5617 34.1256 14.885C34.079 13.905 33.904 12.995 33.6006 12.155C33.2973 11.2917 32.7956 10.6033 32.0956 10.09C31.419 9.55333 30.474 9.285 29.2606 9.285C28.164 9.285 27.254 9.54167 26.5306 10.055C25.8073 10.5683 25.259 11.2217 24.8856 12.015C24.5356 12.8083 24.349 13.6133 24.3256 14.43C24.3023 14.8033 24.2906 15.2583 24.2906 15.795C24.2906 16.3083 24.3023 16.7517 24.3256 17.125C24.3723 17.9883 24.559 18.84 24.8856 19.68C25.2356 20.4967 25.7606 21.1733 26.4606 21.71C27.184 22.2467 28.1173 22.515 29.2606 22.515Z" fill="#2E68FB"/>
<path d="M46.8911 25.35C45.7244 25.35 44.6627 25.1167 43.7061 24.65C42.7494 24.1833 41.9794 23.5533 41.3961 22.76C40.8127 21.9667 40.5211 21.0683 40.5211 20.065C40.5211 18.455 41.1744 17.1717 42.4811 16.215C43.7877 15.2583 45.4911 14.6283 47.5911 14.325L52.8061 13.59V12.575C52.8061 11.455 52.4794 10.58 51.8261 9.95C51.1961 9.32 50.1577 9.005 48.7111 9.005C47.6611 9.005 46.8094 9.215 46.1561 9.635C45.5261 10.055 45.0827 10.5917 44.8261 11.245C44.6861 11.595 44.4411 11.77 44.0911 11.77H42.5161C42.2594 11.77 42.0611 11.7 41.9211 11.56C41.8044 11.3967 41.7461 11.21 41.7461 11C41.7461 10.65 41.8744 10.2183 42.1311 9.705C42.4111 9.19167 42.8311 8.69 43.3911 8.2C43.9511 7.71 44.6627 7.30167 45.5261 6.975C46.4127 6.625 47.4861 6.45 48.7461 6.45C50.1461 6.45 51.3244 6.63667 52.2811 7.01C53.2377 7.36 53.9844 7.83833 54.5211 8.445C55.0811 9.05167 55.4777 9.74 55.7111 10.51C55.9677 11.28 56.0961 12.0617 56.0961 12.855V24.195C56.0961 24.4283 56.0144 24.6267 55.8511 24.79C55.7111 24.93 55.5244 25 55.2911 25H53.6811C53.4244 25 53.2261 24.93 53.0861 24.79C52.9461 24.6267 52.8761 24.4283 52.8761 24.195V22.69C52.5727 23.11 52.1644 23.53 51.6511 23.95C51.1377 24.3467 50.4961 24.685 49.7261 24.965C48.9561 25.2217 48.0111 25.35 46.8911 25.35ZM47.6261 22.725C48.5827 22.725 49.4577 22.5267 50.2511 22.13C51.0444 21.71 51.6627 21.0683 52.1061 20.205C52.5727 19.3417 52.8061 18.2567 52.8061 16.95V15.97L48.7461 16.565C47.0894 16.7983 45.8411 17.195 45.0011 17.755C44.1611 18.2917 43.7411 18.98 43.7411 19.82C43.7411 20.4733 43.9277 21.0217 44.3011 21.465C44.6977 21.885 45.1877 22.2 45.7711 22.41C46.3777 22.62 46.9961 22.725 47.6261 22.725Z" fill="#F8E53E"/>
<path d="M64.3126 31.65C64.1259 31.65 63.9626 31.58 63.8226 31.44C63.6826 31.3 63.6126 31.1367 63.6126 30.95C63.6126 30.8567 63.6243 30.7633 63.6476 30.67C63.6709 30.5767 63.7176 30.46 63.7876 30.32L66.4826 23.915L59.7976 8.13C59.6809 7.85 59.6226 7.65167 59.6226 7.535C59.6226 7.325 59.6926 7.15 59.8326 7.01C59.9726 6.87 60.1476 6.8 60.3576 6.8H62.0726C62.3059 6.8 62.4926 6.85833 62.6326 6.975C62.7726 7.09166 62.8659 7.23167 62.9126 7.395L68.2326 20.135L73.6926 7.395C73.7626 7.23167 73.8559 7.09166 73.9726 6.975C74.1126 6.85833 74.3109 6.8 74.5676 6.8H76.2126C76.4226 6.8 76.5976 6.87 76.7376 7.01C76.8776 7.15 76.9476 7.31333 76.9476 7.5C76.9476 7.61667 76.8893 7.82667 76.7726 8.13L66.8326 31.055C66.7626 31.2183 66.6576 31.3583 66.5176 31.475C66.4009 31.5917 66.2143 31.65 65.9576 31.65H64.3126Z" fill="#26E751"/>
</svg>
