<svg width="20" height="16" viewBox="0 0 20 16" fill="none" xmlns="http://www.w3.org/2000/svg">
<path d="M17.8125 0.625112C17.5976 0.48609 17.3519 0.401984 17.0968 0.380188C16.8418 0.358392 16.5854 0.399574 16.35 0.500113L8.6375 3.53761C8.45491 3.61192 8.25964 3.65013 8.0625 3.65011H3.125C2.7106 3.65011 2.31317 3.81473 2.02015 4.10776C1.72712 4.40078 1.5625 4.79821 1.5625 5.21261V5.33761H0V9.08761H1.5625V9.25011C1.57229 9.65798 1.74122 10.0458 2.0332 10.3308C2.32517 10.6158 2.71702 10.7752 3.125 10.7751L5 14.7501C5.12696 15.0178 5.32685 15.2442 5.5767 15.4034C5.82656 15.5626 6.11624 15.6481 6.4125 15.6501H7.2C7.61223 15.6468 8.00645 15.4807 8.29678 15.1881C8.58711 14.8954 8.75001 14.4999 8.75 14.0876V10.9251L16.35 13.9626C16.5369 14.037 16.7363 14.0752 16.9375 14.0751C17.2496 14.0701 17.5536 13.9745 17.8125 13.8001C18.0181 13.6613 18.1877 13.4755 18.3072 13.2582C18.4268 13.0408 18.4929 12.7981 18.5 12.5501V1.91261C18.4989 1.65826 18.4356 1.40803 18.3158 1.18365C18.196 0.959282 18.0232 0.76755 17.8125 0.625112ZM7.1875 5.21261V9.25011H3.125V5.21261H7.1875ZM7.1875 14.0876H6.4L4.8625 10.7751H7.1875V14.0876ZM9.2125 9.43761C9.06409 9.36177 8.90933 9.29903 8.75 9.25011V5.12511C8.90781 5.09255 9.06254 5.04655 9.2125 4.98761L16.9375 1.91261V12.5126L9.2125 9.43761ZM18.5375 5.65011V8.77511C18.9519 8.77511 19.3493 8.61049 19.6424 8.31747C19.9354 8.02444 20.1 7.62701 20.1 7.21261C20.1 6.79821 19.9354 6.40078 19.6424 6.10776C19.3493 5.81473 18.9519 5.65011 18.5375 5.65011Z" fill="#183456"/>
</svg>
