<svg width="20" height="20" viewBox="0 0 20 20" fill="none" xmlns="http://www.w3.org/2000/svg">
<path d="M20 12.4998V19.9998H10V12.4998H12.5V9.99982H17.5V12.4998H20ZM13.75 12.4998H16.25V11.2498H13.75V12.4998ZM18.75 16.2498H17.5V17.4998H16.25V16.2498H13.75V17.4998H12.5V16.2498H11.25V18.7498H18.75V16.2498ZM18.75 13.7498H11.25V14.9998H18.75V13.7498ZM15.2832 8.74982C14.9316 8.35268 14.515 8.04669 14.0332 7.83185C13.5514 7.617 13.0404 7.50633 12.5 7.49982C11.9792 7.49982 11.4941 7.59747 11.0449 7.79279C10.5957 7.9881 10.1986 8.25502 9.85352 8.59357C9.50846 8.93211 9.23828 9.3325 9.04297 9.79474C8.84766 10.257 8.75 10.742 8.75 11.2498C8.75 11.8488 8.61654 12.4119 8.34961 12.9393C8.08268 13.4666 7.70508 13.9093 7.2168 14.2674C7.50977 14.4171 7.7832 14.5897 8.03711 14.785C8.29102 14.9803 8.52865 15.2016 8.75 15.449V18.7498C8.75 18.2355 8.65234 17.7505 8.45703 17.2947C8.26172 16.839 7.99479 16.4419 7.65625 16.1033C7.31771 15.7648 6.91732 15.4946 6.45508 15.2928C5.99284 15.091 5.50781 14.9933 5 14.9998C4.47917 14.9998 3.99414 15.0975 3.54492 15.2928C3.0957 15.4881 2.69857 15.755 2.35352 16.0936C2.00846 16.4321 1.73828 16.8325 1.54297 17.2947C1.34766 17.757 1.25 18.242 1.25 18.7498H0C0 18.2746 0.0651042 17.8156 0.195312 17.3729C0.325521 16.9302 0.511068 16.5102 0.751953 16.1131C0.992839 15.716 1.28581 15.3644 1.63086 15.0584C1.97591 14.7524 2.36003 14.4887 2.7832 14.2674C2.30143 13.9158 1.92708 13.4764 1.66016 12.949C1.39323 12.4217 1.25651 11.8553 1.25 11.2498C1.25 10.7355 1.34766 10.2505 1.54297 9.79474C1.73828 9.33901 2.00521 8.94187 2.34375 8.60333C2.68229 8.26479 3.07943 7.99461 3.53516 7.79279C3.99089 7.59096 4.47917 7.49331 5 7.49982C5.59896 7.49982 6.16211 7.63328 6.68945 7.90021C7.2168 8.16713 7.65951 8.54474 8.01758 9.03302C8.26497 8.54474 8.58073 8.10854 8.96484 7.72443C9.34896 7.34031 9.78841 7.0213 10.2832 6.7674C9.80143 6.41583 9.42708 5.97638 9.16016 5.44904C8.89323 4.92169 8.75651 4.35529 8.75 3.74982C8.75 3.23549 8.84766 2.75047 9.04297 2.29474C9.23828 1.83901 9.50521 1.44187 9.84375 1.10333C10.1823 0.764791 10.5794 0.494609 11.0352 0.292786C11.4909 0.0909627 11.9792 -0.00669352 12.5 -0.000183105C13.0143 -0.000183105 13.4993 0.0974731 13.9551 0.292786C14.4108 0.488098 14.8079 0.755025 15.1465 1.09357C15.485 1.43211 15.7552 1.8325 15.957 2.29474C16.1589 2.75698 16.2565 3.242 16.25 3.74982C16.25 4.34878 16.1165 4.91193 15.8496 5.43927C15.5827 5.96661 15.2051 6.40932 14.7168 6.7674C15.1595 6.98875 15.5599 7.26544 15.918 7.59747C16.276 7.9295 16.5788 8.31362 16.8262 8.74982H15.2832ZM5 13.7498C5.34505 13.7498 5.66732 13.6847 5.9668 13.5545C6.26628 13.4243 6.5332 13.2453 6.76758 13.0174C7.00195 12.7895 7.18099 12.5259 7.30469 12.2264C7.42839 11.9269 7.49349 11.6014 7.5 11.2498C7.5 10.9048 7.4349 10.5825 7.30469 10.283C7.17448 9.98354 6.99544 9.71661 6.76758 9.48224C6.53971 9.24786 6.27604 9.06883 5.97656 8.94513C5.67708 8.82143 5.35156 8.75633 5 8.74982C4.65495 8.74982 4.33268 8.81492 4.0332 8.94513C3.73372 9.07534 3.4668 9.25437 3.23242 9.48224C2.99805 9.7101 2.81901 9.97377 2.69531 10.2733C2.57161 10.5727 2.50651 10.8983 2.5 11.2498C2.5 11.5949 2.5651 11.9171 2.69531 12.2166C2.82552 12.5161 3.00456 12.783 3.23242 13.0174C3.46029 13.2518 3.72396 13.4308 4.02344 13.5545C4.32292 13.6782 4.64844 13.7433 5 13.7498ZM10 3.74982C10 4.09487 10.0651 4.41713 10.1953 4.71661C10.3255 5.01609 10.5046 5.28302 10.7324 5.5174C10.9603 5.75177 11.224 5.93081 11.5234 6.0545C11.8229 6.1782 12.1484 6.24331 12.5 6.24982C12.8451 6.24982 13.1673 6.18471 13.4668 6.0545C13.7663 5.9243 14.0332 5.74526 14.2676 5.5174C14.502 5.28953 14.681 5.02586 14.8047 4.72638C14.9284 4.4269 14.9935 4.10138 15 3.74982C15 3.40476 14.9349 3.0825 14.8047 2.78302C14.6745 2.48354 14.4954 2.21661 14.2676 1.98224C14.0397 1.74786 13.776 1.56883 13.4766 1.44513C13.1771 1.32143 12.8516 1.25633 12.5 1.24982C12.1549 1.24982 11.8327 1.31492 11.5332 1.44513C11.2337 1.57534 10.9668 1.75437 10.7324 1.98224C10.498 2.2101 10.319 2.47378 10.1953 2.77325C10.0716 3.07273 10.0065 3.39825 10 3.74982Z" fill="#183456"/>
</svg>
