<svg width="16" height="16" viewBox="0 0 16 16" fill="none" xmlns="http://www.w3.org/2000/svg">
<path fill-rule="evenodd" clip-rule="evenodd" d="M7.06167 12.9984C6.85693 13.782 6.37404 14.4644 5.70312 14.9181C5.03221 15.3717 4.21912 15.5658 3.41564 15.4639C2.61215 15.3621 1.87319 14.9713 1.33667 14.3646C0.800158 13.7579 0.502763 12.9767 0.5 12.1668C0.500194 11.4275 0.746022 10.7092 1.19885 10.1249C1.65168 9.54051 2.28584 9.12317 3.00167 8.93844C2.98068 8.10544 3.20988 7.28528 3.65968 6.58384C4.10947 5.88241 4.75921 5.33192 5.525 5.00344C5.61914 4.06161 5.97868 3.16585 6.56182 2.4203C7.14496 1.67474 7.92775 1.11002 8.81917 0.791794C9.71059 0.473566 10.674 0.414901 11.5975 0.62262C12.5209 0.830338 13.3665 1.29591 14.0357 1.9652C14.705 2.63449 15.1706 3.48001 15.3783 4.40346C15.586 5.32691 15.5274 6.29035 15.2091 7.18177C14.8909 8.0732 14.3262 8.85598 13.5806 9.43912C12.8351 10.0223 11.9393 10.3818 10.9975 10.4759C10.6688 11.2417 10.1182 11.8914 9.41658 12.341C8.71499 12.7907 7.89471 13.0197 7.06167 12.9984ZM7.27167 4.66844C8.33993 4.69546 9.35699 5.13188 10.1126 5.8875C10.8682 6.64312 11.3047 7.66017 11.3317 8.72844C12.1153 8.52371 12.7976 8.04081 13.2513 7.3699C13.705 6.69898 13.899 5.88589 13.7972 5.08241C13.6953 4.27893 13.3046 3.53996 12.6978 3.00345C12.0911 2.46693 11.3099 2.16954 10.5 2.16678C9.76072 2.16697 9.04246 2.4128 8.4581 2.86563C7.87373 3.31845 7.45639 3.95261 7.27167 4.66844ZM7.06083 11.3309C7.56387 11.3523 8.06164 11.2213 8.48898 10.955C8.91631 10.6888 9.25328 10.2997 9.45579 9.8387C9.6583 9.37773 9.7169 8.86635 9.62392 8.37151C9.53093 7.87668 9.29071 7.42145 8.93468 7.06543C8.57866 6.7094 8.12343 6.46917 7.6286 6.37619C7.13376 6.28321 6.62238 6.34181 6.16141 6.54432C5.70043 6.74682 5.31135 7.0838 5.04509 7.51113C4.77883 7.93846 4.6478 8.43623 4.66917 8.93927C5.24466 9.08887 5.76976 9.38943 6.19022 9.80989C6.61068 10.2303 6.91123 10.7555 7.06083 11.3309ZM3.83333 13.8334C4.27536 13.8334 4.69928 13.6578 5.01184 13.3453C5.3244 13.0327 5.5 12.6088 5.5 12.1668C5.5 11.7247 5.3244 11.3008 5.01184 10.9883C4.69928 10.6757 4.27536 10.5001 3.83333 10.5001C3.39131 10.5001 2.96738 10.6757 2.65482 10.9883C2.34226 11.3008 2.16667 11.7247 2.16667 12.1668C2.16667 12.6088 2.34226 13.0327 2.65482 13.3453C2.96738 13.6578 3.39131 13.8334 3.83333 13.8334Z" fill="#2E68FB"/>
</svg>
