<svg width="89" height="27" viewBox="0 0 89 27" fill="none" xmlns="http://www.w3.org/2000/svg">
<path d="M8.50676 26C8.27343 26 8.07509 25.93 7.91176 25.79C7.77176 25.6267 7.70176 25.4283 7.70176 25.195V4.615H0.981758C0.748425 4.615 0.550091 4.545 0.386758 4.405C0.246758 4.24167 0.176758 4.04333 0.176758 3.81V2.34C0.176758 2.08333 0.246758 1.885 0.386758 1.745C0.550091 1.58167 0.748425 1.5 0.981758 1.5H17.8518C18.1084 1.5 18.3068 1.58167 18.4468 1.745C18.6101 1.885 18.6918 2.08333 18.6918 2.34V3.81C18.6918 4.04333 18.6101 4.24167 18.4468 4.405C18.3068 4.545 18.1084 4.615 17.8518 4.615H11.1668V25.195C11.1668 25.4283 11.0851 25.6267 10.9218 25.79C10.7818 25.93 10.5834 26 10.3268 26H8.50676ZM24.461 26C24.1577 26 23.9243 25.93 23.761 25.79C23.5977 25.6267 23.4577 25.405 23.341 25.125L18.371 8.885C18.3243 8.76833 18.301 8.65167 18.301 8.535C18.301 8.325 18.371 8.15 18.511 8.01C18.6743 7.87 18.8493 7.8 19.036 7.8H20.576C20.8327 7.8 21.031 7.87 21.171 8.01C21.311 8.15 21.4043 8.27833 21.451 8.395L25.336 21.59L29.501 8.535C29.5477 8.37167 29.641 8.20833 29.781 8.045C29.9443 7.88167 30.1777 7.8 30.481 7.8H31.671C31.9743 7.8 32.2077 7.88167 32.371 8.045C32.5343 8.20833 32.6277 8.37167 32.651 8.535L36.816 21.59L40.701 8.395C40.7244 8.27833 40.806 8.15 40.946 8.01C41.086 7.87 41.2843 7.8 41.541 7.8H43.081C43.291 7.8 43.466 7.87 43.606 8.01C43.746 8.15 43.816 8.325 43.816 8.535C43.816 8.65167 43.7927 8.76833 43.746 8.885L38.776 25.125C38.706 25.405 38.5777 25.6267 38.391 25.79C38.2277 25.93 37.9827 26 37.656 26H36.291C35.9877 26 35.731 25.93 35.521 25.79C35.3343 25.6267 35.206 25.405 35.136 25.125L31.076 12.595L27.016 25.125C26.9227 25.405 26.7827 25.6267 26.596 25.79C26.4093 25.93 26.1527 26 25.826 26H24.461ZM48.4975 26C48.2642 26 48.0659 25.93 47.9025 25.79C47.7625 25.6267 47.6925 25.4283 47.6925 25.195V8.605C47.6925 8.37167 47.7625 8.185 47.9025 8.045C48.0659 7.88167 48.2642 7.8 48.4975 7.8H50.1775C50.4109 7.8 50.5975 7.88167 50.7375 8.045C50.8775 8.185 50.9475 8.37167 50.9475 8.605V25.195C50.9475 25.4283 50.8775 25.6267 50.7375 25.79C50.5975 25.93 50.4109 26 50.1775 26H48.4975ZM48.2175 4.405C47.9842 4.405 47.7859 4.335 47.6225 4.195C47.4825 4.03167 47.4125 3.83333 47.4125 3.6V1.71C47.4125 1.47667 47.4825 1.29 47.6225 1.15C47.7859 0.986666 47.9842 0.905 48.2175 0.905H50.4225C50.6559 0.905 50.8425 0.986666 50.9825 1.15C51.1459 1.29 51.2275 1.47667 51.2275 1.71V3.6C51.2275 3.83333 51.1459 4.03167 50.9825 4.195C50.8425 4.335 50.6559 4.405 50.4225 4.405H48.2175ZM57.0091 26C56.7758 26 56.5774 25.93 56.4141 25.79C56.2741 25.6267 56.2041 25.4283 56.2041 25.195V1.955C56.2041 1.72167 56.2741 1.535 56.4141 1.395C56.5774 1.23167 56.7758 1.15 57.0091 1.15H58.6541C58.9108 1.15 59.1091 1.23167 59.2491 1.395C59.3891 1.535 59.4591 1.72167 59.4591 1.955V25.195C59.4591 25.4283 59.3891 25.6267 59.2491 25.79C59.1091 25.93 58.9108 26 58.6541 26H57.0091ZM65.5198 26C65.2865 26 65.0882 25.93 64.9248 25.79C64.7848 25.6267 64.7148 25.4283 64.7148 25.195V1.955C64.7148 1.72167 64.7848 1.535 64.9248 1.395C65.0882 1.23167 65.2865 1.15 65.5198 1.15H67.1648C67.4215 1.15 67.6198 1.23167 67.7598 1.395C67.8998 1.535 67.9698 1.72167 67.9698 1.955V25.195C67.9698 25.4283 67.8998 25.6267 67.7598 25.79C67.6198 25.93 67.4215 26 67.1648 26H65.5198ZM80.6456 26.35C78.8723 26.35 77.3906 26.0117 76.2006 25.335C75.0106 24.6583 74.1006 23.725 73.4706 22.535C72.8406 21.3217 72.4906 19.945 72.4206 18.405C72.3973 18.0083 72.3856 17.5067 72.3856 16.9C72.3856 16.27 72.3973 15.7683 72.4206 15.395C72.4906 13.8317 72.8406 12.455 73.4706 11.265C74.1239 10.075 75.0456 9.14167 76.2356 8.465C77.4256 7.78833 78.8956 7.45 80.6456 7.45C82.3956 7.45 83.8656 7.78833 85.0556 8.465C86.2456 9.14167 87.1556 10.075 87.7856 11.265C88.4389 12.455 88.8006 13.8317 88.8706 15.395C88.8939 15.7683 88.9056 16.27 88.9056 16.9C88.9056 17.5067 88.8939 18.0083 88.8706 18.405C88.8006 19.945 88.4506 21.3217 87.8206 22.535C87.1906 23.725 86.2806 24.6583 85.0906 25.335C83.9006 26.0117 82.4189 26.35 80.6456 26.35ZM80.6456 23.655C82.0923 23.655 83.2473 23.2 84.1106 22.29C84.9739 21.3567 85.4406 20.0033 85.5106 18.23C85.5339 17.88 85.5456 17.4367 85.5456 16.9C85.5456 16.3633 85.5339 15.92 85.5106 15.57C85.4406 13.7967 84.9739 12.455 84.1106 11.545C83.2473 10.6117 82.0923 10.145 80.6456 10.145C79.1989 10.145 78.0323 10.6117 77.1456 11.545C76.2823 12.455 75.8273 13.7967 75.7806 15.57C75.7573 15.92 75.7456 16.3633 75.7456 16.9C75.7456 17.4367 75.7573 17.88 75.7806 18.23C75.8273 20.0033 76.2823 21.3567 77.1456 22.29C78.0323 23.2 79.1989 23.655 80.6456 23.655Z" fill="#EE2D47"/>
</svg>
