<svg width="130" height="27" viewBox="0 0 130 27" fill="none" xmlns="http://www.w3.org/2000/svg">
<path d="M1.52955 26C1.27288 26 1.07455 25.9183 0.934551 25.755C0.794551 25.5917 0.724551 25.3933 0.724551 25.16V23.655C0.724551 23.305 0.794551 23.025 0.934551 22.815C1.07455 22.605 1.17955 22.4533 1.24955 22.36L14.2696 4.545H1.84455C1.61122 4.545 1.41288 4.475 1.24955 4.335C1.10955 4.17167 1.03955 3.97333 1.03955 3.74V2.34C1.03955 2.08333 1.10955 1.885 1.24955 1.745C1.41288 1.58167 1.61122 1.5 1.84455 1.5H17.6996C17.9562 1.5 18.1546 1.58167 18.2946 1.745C18.4346 1.885 18.5046 2.08333 18.5046 2.34V3.845C18.5046 4.125 18.4579 4.35833 18.3646 4.545C18.2946 4.73167 18.1896 4.90667 18.0496 5.07L5.16955 22.955H18.0496C18.3062 22.955 18.5046 23.0367 18.6446 23.2C18.8079 23.34 18.8896 23.5383 18.8896 23.795V25.195C18.8896 25.4283 18.8079 25.6267 18.6446 25.79C18.5046 25.93 18.3062 26 18.0496 26H1.52955ZM29.5982 26.35C27.1949 26.35 25.2815 25.615 23.8582 24.145C22.4349 22.6517 21.6532 20.6217 21.5132 18.055C21.4899 17.7517 21.4782 17.3667 21.4782 16.9C21.4782 16.41 21.4899 16.0133 21.5132 15.71C21.6065 14.0533 21.9915 12.6067 22.6682 11.37C23.3449 10.11 24.2665 9.14167 25.4332 8.465C26.6232 7.78833 28.0115 7.45 29.5982 7.45C31.3715 7.45 32.8532 7.82333 34.0432 8.57C35.2565 9.31667 36.1782 10.3783 36.8082 11.755C37.4382 13.1317 37.7532 14.7417 37.7532 16.585V17.18C37.7532 17.4367 37.6715 17.635 37.5082 17.775C37.3682 17.915 37.1815 17.985 36.9482 17.985H24.8382C24.8382 18.0083 24.8382 18.055 24.8382 18.125C24.8382 18.195 24.8382 18.2533 24.8382 18.3C24.8849 19.2567 25.0949 20.155 25.4682 20.995C25.8415 21.8117 26.3782 22.4767 27.0782 22.99C27.7782 23.5033 28.6182 23.76 29.5982 23.76C30.4382 23.76 31.1382 23.6317 31.6982 23.375C32.2582 23.1183 32.7132 22.8383 33.0632 22.535C33.4132 22.2083 33.6465 21.9633 33.7632 21.8C33.9732 21.4967 34.1365 21.3217 34.2532 21.275C34.3699 21.205 34.5565 21.17 34.8132 21.17H36.4932C36.7265 21.17 36.9132 21.24 37.0532 21.38C37.2165 21.4967 37.2865 21.6717 37.2632 21.905C37.2399 22.255 37.0532 22.6867 36.7032 23.2C36.3532 23.69 35.8515 24.18 35.1982 24.67C34.5449 25.16 33.7515 25.5683 32.8182 25.895C31.8849 26.1983 30.8115 26.35 29.5982 26.35ZM24.8382 15.57H34.4282V15.465C34.4282 14.415 34.2299 13.4817 33.8332 12.665C33.4599 11.8483 32.9115 11.2067 32.1882 10.74C31.4649 10.25 30.6015 10.005 29.5982 10.005C28.5949 10.005 27.7315 10.25 27.0082 10.74C26.3082 11.2067 25.7715 11.8483 25.3982 12.665C25.0249 13.4817 24.8382 14.415 24.8382 15.465V15.57ZM42.7431 26C42.5098 26 42.3115 25.93 42.1481 25.79C42.0081 25.6267 41.9381 25.4283 41.9381 25.195V8.605C41.9381 8.37167 42.0081 8.185 42.1481 8.045C42.3115 7.88167 42.5098 7.8 42.7431 7.8H44.3881C44.6215 7.8 44.8081 7.88167 44.9481 8.045C45.1115 8.185 45.1931 8.37167 45.1931 8.605V10.145C45.7998 9.35167 46.5581 8.71 47.4681 8.22C48.4015 7.70667 49.5915 7.45 51.0381 7.45C52.5548 7.45 53.8381 7.78833 54.8881 8.465C55.9615 9.11833 56.7665 10.04 57.3031 11.23C57.8398 12.3967 58.1081 13.7617 58.1081 15.325V25.195C58.1081 25.4283 58.0381 25.6267 57.8981 25.79C57.7581 25.93 57.5715 26 57.3381 26H55.5881C55.3548 26 55.1565 25.93 54.9931 25.79C54.8531 25.6267 54.7831 25.4283 54.7831 25.195V15.5C54.7831 13.8667 54.3865 12.595 53.5931 11.685C52.7998 10.7517 51.6331 10.285 50.0931 10.285C48.6465 10.285 47.4798 10.7517 46.5931 11.685C45.7298 12.595 45.2981 13.8667 45.2981 15.5V25.195C45.2981 25.4283 45.2165 25.6267 45.0531 25.79C44.9131 25.93 44.7265 26 44.4931 26H42.7431ZM70.4087 26.35C68.0054 26.35 66.0921 25.615 64.6687 24.145C63.2454 22.6517 62.4637 20.6217 62.3237 18.055C62.3004 17.7517 62.2887 17.3667 62.2887 16.9C62.2887 16.41 62.3004 16.0133 62.3237 15.71C62.4171 14.0533 62.8021 12.6067 63.4787 11.37C64.1554 10.11 65.0771 9.14167 66.2437 8.465C67.4337 7.78833 68.8221 7.45 70.4087 7.45C72.1821 7.45 73.6637 7.82333 74.8537 8.57C76.0671 9.31667 76.9887 10.3783 77.6187 11.755C78.2487 13.1317 78.5637 14.7417 78.5637 16.585V17.18C78.5637 17.4367 78.4821 17.635 78.3187 17.775C78.1787 17.915 77.9921 17.985 77.7587 17.985H65.6487C65.6487 18.0083 65.6487 18.055 65.6487 18.125C65.6487 18.195 65.6487 18.2533 65.6487 18.3C65.6954 19.2567 65.9054 20.155 66.2787 20.995C66.6521 21.8117 67.1887 22.4767 67.8887 22.99C68.5887 23.5033 69.4287 23.76 70.4087 23.76C71.2487 23.76 71.9487 23.6317 72.5087 23.375C73.0687 23.1183 73.5237 22.8383 73.8737 22.535C74.2237 22.2083 74.4571 21.9633 74.5737 21.8C74.7837 21.4967 74.9471 21.3217 75.0637 21.275C75.1804 21.205 75.3671 21.17 75.6237 21.17H77.3037C77.5371 21.17 77.7237 21.24 77.8637 21.38C78.0271 21.4967 78.0971 21.6717 78.0737 21.905C78.0504 22.255 77.8637 22.6867 77.5137 23.2C77.1637 23.69 76.6621 24.18 76.0087 24.67C75.3554 25.16 74.5621 25.5683 73.6287 25.895C72.6954 26.1983 71.6221 26.35 70.4087 26.35ZM65.6487 15.57H75.2387V15.465C75.2387 14.415 75.0404 13.4817 74.6437 12.665C74.2704 11.8483 73.7221 11.2067 72.9987 10.74C72.2754 10.25 71.4121 10.005 70.4087 10.005C69.4054 10.005 68.5421 10.25 67.8187 10.74C67.1187 11.2067 66.5821 11.8483 66.2087 12.665C65.8354 13.4817 65.6487 14.415 65.6487 15.465V15.57ZM85.2028 26C84.9695 26 84.7711 25.93 84.6078 25.79C84.4678 25.6267 84.3978 25.4283 84.3978 25.195V10.6H81.4228C81.1895 10.6 80.9911 10.53 80.8278 10.39C80.6878 10.2267 80.6178 10.0283 80.6178 9.795V8.605C80.6178 8.37167 80.6878 8.185 80.8278 8.045C80.9911 7.88167 81.1895 7.8 81.4228 7.8H84.3978V6.05C84.3978 4.86 84.5961 3.82167 84.9928 2.935C85.3895 2.025 86.0195 1.325 86.8828 0.834999C87.7695 0.344999 88.9478 0.0999997 90.4178 0.0999997H95.8078C96.0411 0.0999997 96.2278 0.181666 96.3678 0.344999C96.5311 0.484998 96.6128 0.671665 96.6128 0.905V2.095C96.6128 2.32833 96.5311 2.52667 96.3678 2.69C96.2278 2.83 96.0411 2.9 95.8078 2.9H90.4878C89.3911 2.9 88.6445 3.19167 88.2478 3.775C87.8511 4.335 87.6528 5.15167 87.6528 6.225V7.8H95.8078C96.0411 7.8 96.2278 7.88167 96.3678 8.045C96.5311 8.185 96.6128 8.37167 96.6128 8.605V25.195C96.6128 25.4283 96.5311 25.6267 96.3678 25.79C96.2278 25.93 96.0411 26 95.8078 26H94.1978C93.9411 26 93.7428 25.93 93.6028 25.79C93.4628 25.6267 93.3928 25.4283 93.3928 25.195V10.6H87.6528V25.195C87.6528 25.4283 87.5711 25.6267 87.4078 25.79C87.2678 25.93 87.0811 26 86.8478 26H85.2028ZM108.892 26C107.585 26 106.523 25.755 105.707 25.265C104.89 24.7517 104.295 24.04 103.922 23.13C103.548 22.1967 103.362 21.1 103.362 19.84V10.6H100.632C100.398 10.6 100.2 10.53 100.037 10.39C99.8968 10.2267 99.8268 10.0283 99.8268 9.795V8.605C99.8268 8.37167 99.8968 8.185 100.037 8.045C100.2 7.88167 100.398 7.8 100.632 7.8H103.362V1.955C103.362 1.72167 103.432 1.535 103.572 1.395C103.735 1.23167 103.933 1.15 104.167 1.15H105.812C106.045 1.15 106.232 1.23167 106.372 1.395C106.535 1.535 106.617 1.72167 106.617 1.955V7.8H110.957C111.19 7.8 111.377 7.88167 111.517 8.045C111.68 8.185 111.762 8.37167 111.762 8.605V9.795C111.762 10.0283 111.68 10.2267 111.517 10.39C111.377 10.53 111.19 10.6 110.957 10.6H106.617V19.595C106.617 20.6917 106.803 21.555 107.177 22.185C107.55 22.815 108.215 23.13 109.172 23.13H111.307C111.54 23.13 111.727 23.2117 111.867 23.375C112.03 23.515 112.112 23.7017 112.112 23.935V25.195C112.112 25.4283 112.03 25.6267 111.867 25.79C111.727 25.93 111.54 26 111.307 26H108.892ZM121.759 26.35C120.452 26.35 119.332 26.1867 118.399 25.86C117.465 25.5333 116.707 25.1367 116.124 24.67C115.54 24.2033 115.097 23.7367 114.794 23.27C114.514 22.8033 114.362 22.43 114.339 22.15C114.315 21.8933 114.397 21.695 114.584 21.555C114.77 21.415 114.957 21.345 115.144 21.345H116.684C116.824 21.345 116.929 21.3683 116.999 21.415C117.092 21.4383 117.209 21.5317 117.349 21.695C117.652 22.0217 117.99 22.3483 118.364 22.675C118.737 23.0017 119.192 23.27 119.729 23.48C120.289 23.69 120.977 23.795 121.794 23.795C122.984 23.795 123.964 23.5733 124.734 23.13C125.504 22.6633 125.889 21.9867 125.889 21.1C125.889 20.5167 125.725 20.05 125.399 19.7C125.095 19.35 124.535 19.035 123.719 18.755C122.925 18.475 121.829 18.1833 120.429 17.88C119.029 17.5533 117.92 17.1567 117.104 16.69C116.287 16.2 115.704 15.6283 115.354 14.975C115.004 14.2983 114.829 13.54 114.829 12.7C114.829 11.8367 115.085 11.0083 115.599 10.215C116.112 9.39833 116.859 8.73333 117.839 8.22C118.842 7.70667 120.09 7.45 121.584 7.45C122.797 7.45 123.835 7.60167 124.699 7.905C125.562 8.20833 126.274 8.59333 126.834 9.06C127.394 9.50333 127.814 9.94667 128.094 10.39C128.374 10.8333 128.525 11.2067 128.549 11.51C128.572 11.7433 128.502 11.9417 128.339 12.105C128.175 12.245 127.989 12.315 127.779 12.315H126.309C126.145 12.315 126.005 12.28 125.889 12.21C125.795 12.14 125.702 12.0583 125.609 11.965C125.375 11.6617 125.095 11.3583 124.769 11.055C124.465 10.7517 124.057 10.5067 123.544 10.32C123.054 10.11 122.4 10.005 121.584 10.005C120.417 10.005 119.542 10.25 118.959 10.74C118.375 11.23 118.084 11.8483 118.084 12.595C118.084 13.0383 118.212 13.435 118.469 13.785C118.725 14.135 119.215 14.45 119.939 14.73C120.662 15.01 121.735 15.3133 123.159 15.64C124.699 15.9433 125.912 16.3517 126.799 16.865C127.685 17.3783 128.315 17.9733 128.689 18.65C129.062 19.3267 129.249 20.1083 129.249 20.995C129.249 21.975 128.957 22.8733 128.374 23.69C127.814 24.5067 126.974 25.16 125.854 25.65C124.757 26.1167 123.392 26.35 121.759 26.35Z" fill="#123360"/>
</svg>
